<?xml version="1.0" standalone="no"?>
<!DOCTYPE svg PUBLIC "-//W3C//DTD SVG 20010904//EN"
 "http://www.w3.org/TR/2001/REC-SVG-20010904/DTD/svg10.dtd">
<svg version="1.0" xmlns="http://www.w3.org/2000/svg"
 width="256.000000pt" height="256.000000pt" viewBox="0 0 256.000000 256.000000"
 preserveAspectRatio="xMidYMid meet">
<metadata>
Created by potrace 1.11, written by Peter Selinger 2001-2013
</metadata>
<g transform="translate(0.000000,256.000000) scale(0.100000,-0.100000)"
fill="#000000" stroke="none">
<path d="M1195 2545 c-83 -45 -95 -76 -95 -255 l0 -140 -403 0 -404 0 -19 -22
c-22 -26 -22 -40 -5 -148 7 -41 15 -88 17 -105 16 -109 26 -122 94 -127 45 -3
45 -3 52 -48 7 -47 9 -54 33 -180 8 -41 17 -91 20 -110 3 -19 20 -107 36 -195
17 -88 32 -169 34 -180 6 -41 36 -202 50 -270 8 -38 16 -85 19 -102 4 -18 8
-48 12 -65 3 -18 11 -64 19 -103 8 -38 16 -83 19 -100 5 -29 19 -107 31 -170
3 -16 12 -66 20 -110 11 -57 21 -85 36 -97 20 -17 60 -18 524 -18 466 0 503 1
518 18 9 9 18 28 20 42 3 14 8 36 11 50 7 32 15 76 21 120 3 19 7 42 10 50 2
8 7 31 10 50 3 19 12 69 20 110 8 41 17 89 20 105 2 17 7 41 10 55 3 14 12 61
20 105 8 44 16 89 18 100 3 11 8 40 12 65 9 53 13 76 20 110 3 14 8 40 11 59
3 18 8 43 10 55 24 121 36 187 40 216 2 19 6 42 9 50 2 8 7 31 10 50 3 19 14
80 25 135 11 55 22 116 25 135 11 67 13 70 59 70 62 0 77 22 91 130 5 39 14
99 22 145 10 60 8 80 -11 103 l-19 22 -404 0 -403 0 0 140 c0 161 -9 193 -64
235 -47 35 -153 46 -201 20z"/>
</g>
</svg>
